<?xml version="1.0" encoding="UTF-8"?>
<!-- Generated by Pixelmator Pro 3.3.2 -->
<svg width="965" height="283" viewBox="0 0 965 283" xmlns="http://www.w3.org/2000/svg" xmlns:xlink="http://www.w3.org/1999/xlink">
    <g id="building-full">
        <g id="building">
            <path id="Rectangle-copy-9" fill="#1c1c1c" fill-rule="evenodd" stroke="#1c1c1c" stroke-width="5" d="M 187 187 L 278 187 L 278 96 L 187 96 Z"/>
            <path id="Rectangle-copy-11" fill="#1c1c1c" fill-rule="evenodd" stroke="#1c1c1c" stroke-width="5" d="M 5 96 L 187 96 L 187 5 L 5 5 Z"/>
            <path id="Rectangle-copy-12" fill="#fee600" fill-rule="evenodd" stroke="#1c1c1c" stroke-width="5" d="M 5 278 L 278 278 L 278 187 L 5 187 Z"/>
            <path id="Rectangle-copy-10" fill="#fee600" fill-rule="evenodd" stroke="#1c1c1c" stroke-width="5" d="M 187 96 L 278 96 L 278 5 L 187 5 Z"/>
            <path id="Rectangle-copy-7" fill="#fee600" fill-rule="evenodd" stroke="#1c1c1c" stroke-width="5" d="M 5 187 L 96 187 L 96 96 L 5 96 Z"/>
            <path id="Rectangle-copy-6" fill="#fee600" fill-rule="evenodd" stroke="#1c1c1c" stroke-width="5" d="M 96 187 L 187 187 L 187 96 L 96 96 Z"/>
            <path id="Rectangle" fill="#89c6e9" fill-rule="evenodd" stroke="#1c1c1c" stroke-width="5" d="M 97 278 L 187 278 L 187 219 L 97 219 Z"/>
            <path id="Line" fill="none" stroke="#1c1c1c" stroke-width="5" d="M 142 219 L 142 278"/>
            <path id="d" fill="#000000" fill-rule="evenodd" stroke="none" d="M 47.666 165.664001 C 52.410995 165.664001 55.914993 164.276993 58.324005 162.014008 L 58.688995 162.014008 L 59.492004 165.007004 L 67.667999 165.007004 L 67.667999 111.643997 L 58.104996 111.643997 L 58.104996 128.507004 C 56.425995 127.557999 53.725006 126.462997 49.417999 126.462997 C 39.636002 126.462997 32.481995 132.229996 32.481995 146.246002 L 32.481995 147.195007 C 32.481995 160.772995 40.074005 165.664001 47.666 165.664001 Z M 51.169998 158.363998 C 45.841003 158.363998 42.337006 155.882004 42.337006 146.757004 L 42.337006 145.442993 C 42.337006 136.464005 45.621994 133.690002 51.169998 133.690002 C 54.235992 133.690002 56.863998 134.347 58.104996 135.296005 L 58.104996 155.955002 C 56.791 157.050003 54.455002 158.363998 51.169998 158.363998 Z"/>
            <path id="m" fill="#000000" fill-rule="evenodd" stroke="none" d="M 115.233994 165.007004 L 124.796997 165.007004 L 124.796997 136.098999 C 126.914001 135.296005 129.395996 134.201004 131.804993 134.201004 C 135.820007 134.201004 137.134003 135.733994 137.134003 139.164993 L 137.134003 165.007004 L 146.769989 165.007004 L 146.769989 137.632004 C 146.769989 137.121002 146.769989 136.682999 146.696991 136.171997 C 149.178986 135.149994 151.441986 134.201004 153.778015 134.201004 C 157.720001 134.201004 159.106995 135.733994 159.106995 139.164993 L 159.106995 165.007004 L 168.670013 165.007004 L 168.670013 136.755997 C 168.670013 129.382996 164.800995 126.462997 158.230988 126.462997 C 153.851013 126.462997 149.617004 128.069 145.821014 130.697006 L 145.455994 130.697006 C 143.631012 127.776993 140.565002 126.462997 136.330994 126.462997 C 131.804993 126.462997 127.936005 128.287994 124.796997 130.697006 L 124.432007 130.697006 L 124.432007 127.192993 L 115.233994 127.192993 Z"/>
            <path id="2" fill="#000000" fill-rule="evenodd" stroke="none" d="M 216.503998 72.006989 L 248.915985 72.006989 L 248.915985 64.049988 L 229.790009 64.049988 L 234.972992 58.794006 C 240.083008 53.464996 248.769989 44.55899 248.769989 35.506989 C 248.769989 26.30899 243.075989 21.126007 231.541992 21.126007 C 225.701996 21.126007 220.59201 22.731995 217.088013 24.703003 L 218.402008 32.075989 C 221.175995 30.615997 225.337006 29.083008 228.476013 29.083008 C 234.681 29.083008 238.039001 31.053986 238.039001 36.96701 C 238.039001 42.880005 232.053009 49.450012 225.19101 56.75 L 216.503998 66.020996 Z"/>
        </g>
        <path id="decimetar-kvadratni" fill="#1c1c1c" fill-rule="evenodd" stroke="none" d="M 525.09375 239.720703 C 512.760254 239.720703 504.101563 233.553848 504.101563 220.564453 C 504.101563 206.263016 513.941895 201.538422 528.505859 199.570313 L 540.837891 197.734375 L 540.837891 194.978516 C 540.837891 187.762192 537.42804 186.318359 527.71875 186.318359 C 520.895935 186.318359 514.465271 187.237457 509.873047 188.287109 L 509.873047 173.591797 C 516.827026 170.836456 525.749512 169.65625 536.246094 169.65625 C 552.909363 169.65625 563.144531 175.035629 563.144531 190.386719 L 563.144531 238.539063 L 544.644531 238.539063 L 543.068359 233.291016 L 542.414063 233.291016 C 539.527527 237.358398 533.490967 239.720703 525.09375 239.720703 Z M 601.0625 239.720703 C 586.892151 239.720703 574.296875 230.274017 574.296875 206.394531 L 574.296875 204.951172 C 574.296875 179.497192 587.153931 169.65625 604.998047 169.65625 C 612.214417 169.65625 616.939392 171.230896 619.169922 172.542969 L 619.169922 144.595703 L 641.34375 144.595703 L 641.34375 238.408203 L 622.1875 238.408203 L 620.744141 233.291016 L 619.957031 233.291016 C 615.364807 237.620819 609.328552 239.720703 601.0625 239.720703 Z M 724.003906 239.720703 C 711.67041 239.720703 703.009766 233.553848 703.009766 220.564453 C 703.009766 206.263016 712.852051 201.538422 727.416016 199.570313 L 739.748047 197.734375 L 739.748047 194.978516 C 739.748047 187.762192 736.336243 186.318359 726.626953 186.318359 C 719.804138 186.318359 713.375427 187.237457 708.783203 188.287109 L 708.783203 173.591797 C 715.737183 170.836456 724.659668 169.65625 735.15625 169.65625 C 751.819519 169.65625 762.054688 175.035629 762.054688 190.386719 L 762.054688 238.539063 L 743.552734 238.539063 L 741.978516 233.291016 L 741.322266 233.291016 C 738.43573 237.358398 732.401123 239.720703 724.003906 239.720703 Z M 801.677734 239.457031 C 788.163452 239.457031 780.160156 234.996185 780.160156 220.169922 L 780.160156 186.449219 L 771.763672 186.449219 L 771.763672 170.966797 L 780.160156 170.966797 L 780.160156 154.960938 L 802.597656 154.960938 L 802.597656 170.966797 L 816.242188 170.966797 L 816.242188 186.449219 L 802.597656 186.449219 L 802.597656 216.890625 C 802.597656 221.614044 804.563904 223.056641 809.943359 223.056641 C 812.305115 223.056641 814.799805 222.794006 816.636719 222.400391 L 816.636719 236.833984 C 813.881348 238.146057 808.894165 239.457031 801.677734 239.457031 Z M 454.373047 238.539063 L 430.494141 170.835938 L 453.847656 170.835938 L 466.96875 213.216797 L 467.363281 213.216797 L 480.484375 170.835938 L 501.476563 170.835938 L 477.597656 238.539063 L 454.373047 238.539063 Z M 905.59375 238.539063 L 905.59375 170.835938 L 928.03125 170.835938 L 928.03125 238.539063 L 905.59375 238.539063 Z M 361.085938 238.408203 L 361.085938 144.595703 L 383.390625 144.595703 L 383.390625 199.308594 L 402.808594 170.835938 L 424.982422 170.835938 L 403.203125 201.800781 L 426.164063 238.408203 L 402.546875 238.408203 L 383.390625 207.181641 L 383.390625 238.408203 L 361.085938 238.408203 Z M 655.382813 238.408203 L 655.382813 170.835938 L 676.900391 170.835938 L 676.900391 178.970703 L 677.556641 178.970703 C 681.099182 173.853699 687.266357 170.179688 694.351563 170.179688 C 696.188416 170.179688 697.499878 170.442673 698.287109 170.705078 L 698.287109 190.386719 C 696.843872 190.124313 694.350586 189.599609 692.513672 189.599609 C 686.609375 189.599609 681.492126 190.911148 677.818359 192.748047 L 677.818359 238.408203 L 655.382813 238.408203 Z M 828.050781 238.408203 L 828.050781 170.835938 L 849.568359 170.835938 L 849.568359 176.740234 L 850.224609 176.740234 C 856.128906 172.148056 863.213684 169.65625 871.742188 169.65625 C 884.338013 169.65625 891.685547 174.773254 891.685547 188.15625 L 891.685547 238.408203 L 869.380859 238.408203 L 869.380859 194.322266 C 869.380859 188.81163 867.020264 186.974609 860.853516 186.974609 C 857.310913 186.974609 853.110474 188.155426 850.486328 189.205078 L 850.486328 238.408203 L 828.050781 238.408203 Z M 532.703125 225.681641 C 536.245728 225.681641 539.394592 224.500259 540.837891 222.925781 L 540.837891 209.804688 L 532.966797 210.591797 C 527.718567 211.116623 525.488281 213.217316 525.488281 218.203125 C 525.488281 223.976166 528.504517 225.681641 532.703125 225.681641 Z M 731.613281 225.681641 C 735.155884 225.681641 738.304749 224.500259 739.748047 222.925781 L 739.748047 209.804688 L 731.876953 210.591797 C 726.628723 211.116623 724.396484 213.217316 724.396484 218.203125 C 724.396484 223.976166 727.414673 225.681641 731.613281 225.681641 Z M 609.591797 223.451172 C 613.790466 223.451172 617.070618 222.008087 619.169922 220.433594 L 619.169922 187.238281 C 617.333008 186.057419 614.052124 184.875 609.853516 184.875 C 601.981079 184.875 597.257813 189.075165 597.257813 203.507813 L 597.257813 205.474609 C 597.257813 219.907257 602.113037 223.451172 609.591797 223.451172 Z M 905.462891 163.226563 L 905.462891 146.169922 L 928.162109 146.169922 L 928.162109 163.226563 L 905.462891 163.226563 Z M 385.226563 137.669922 C 371.056213 137.669922 358.460938 128.223389 358.460938 104.34375 L 358.460938 102.900391 C 358.460938 77.446259 371.319946 67.605469 389.164063 67.605469 C 396.380432 67.605469 401.103455 69.180115 403.333984 70.492188 L 403.333984 42.544922 L 425.507813 42.544922 L 425.507813 136.357422 L 406.351563 136.357422 L 404.908203 131.240234 L 404.121094 131.240234 C 399.52887 135.570068 393.492615 137.669922 385.226563 137.669922 Z M 472.480469 137.669922 C 448.469666 137.669922 436.791016 125.598114 436.791016 103.292969 L 436.791016 101.587891 C 436.791016 80.726013 449.780518 67.605469 469.986328 67.605469 C 492.685059 67.605469 501.214844 80.331909 501.214844 102.505859 L 501.214844 108.279297 L 459.490234 108.279297 C 460.802307 118.907028 466.838928 121.925781 478.253906 121.925781 C 486.257568 121.925781 493.210693 119.956741 498.458984 117.857422 L 498.458984 131.634766 C 493.341858 134.652527 484.945129 137.669922 472.480469 137.669922 Z M 543.59375 137.669922 C 521.288513 137.669922 509.480469 125.99231 509.480469 103.818359 L 509.480469 102.244141 C 509.480469 79.28299 523.124939 67.605469 544.511719 67.605469 C 553.827393 67.605469 559.207581 68.787048 563.40625 71.017578 L 563.40625 87.15625 C 558.94519 85.450562 555.402832 84.400391 548.580078 84.400391 C 539.133179 84.400391 532.703125 89.254959 532.703125 100.669922 L 532.703125 102.769531 C 532.703125 115.496567 537.557983 120.875 548.841797 120.875 C 555.4021 120.875 560.520569 119.169144 563.800781 117.988281 L 563.800781 133.078125 C 560.126953 135.43985 553.434265 137.669922 543.59375 137.669922 Z M 759.691406 137.669922 C 735.680542 137.669922 724.003906 125.598053 724.003906 103.292969 L 724.003906 101.587891 C 724.003906 80.726074 736.993347 67.605469 757.199219 67.605469 C 779.89801 67.605469 788.425781 80.33197 788.425781 102.505859 L 788.425781 108.279297 L 746.703125 108.279297 C 748.015198 118.906967 754.049866 121.925781 765.464844 121.925781 C 773.468506 121.925781 780.423645 119.956741 785.671875 117.857422 L 785.671875 131.634766 C 780.55481 134.652527 772.156067 137.669922 759.691406 137.669922 Z M 869.775391 137.669922 C 857.441956 137.669922 848.78125 131.503052 848.78125 118.513672 C 848.78125 104.21225 858.621582 99.489563 873.185547 97.521484 L 885.519531 95.683594 L 885.519531 92.927734 C 885.519531 85.711334 882.107788 84.269531 872.398438 84.269531 C 865.575684 84.269531 859.146912 85.186676 854.554688 86.236328 L 854.554688 71.541016 C 861.508606 68.785675 870.431213 67.605469 880.927734 67.605469 C 897.591064 67.605469 907.824219 72.984863 907.824219 88.335938 L 907.824219 136.490234 L 889.324219 136.490234 L 887.75 131.240234 L 887.09375 131.240234 C 884.207214 135.307648 878.172668 137.669922 869.775391 137.669922 Z M 825.425781 137.408203 C 811.911499 137.408203 803.908203 132.947372 803.908203 118.121094 L 803.908203 84.400391 L 795.511719 84.400391 L 795.511719 68.917969 L 803.908203 68.917969 L 803.908203 52.910156 L 826.345703 52.910156 L 826.345703 68.917969 L 839.990234 68.917969 L 839.990234 84.400391 L 826.345703 84.400391 L 826.345703 114.839844 C 826.345703 119.563293 828.313843 121.007813 833.693359 121.007813 C 836.055054 121.007813 838.547913 120.745178 840.384766 120.351563 L 840.384766 134.783203 C 837.629456 136.095276 832.642151 137.408203 825.425781 137.408203 Z M 575.609375 136.490234 L 575.609375 68.787109 L 598.044922 68.787109 L 598.044922 136.490234 L 575.609375 136.490234 Z M 612.345703 136.357422 L 612.345703 68.787109 L 633.865234 68.787109 L 633.865234 74.691406 L 634.521484 74.691406 C 640.16333 70.230347 646.722778 67.605469 655.513672 67.605469 C 663.254883 67.605469 668.634583 69.835358 671.652344 75.214844 L 672.177734 75.214844 C 678.869324 70.228973 686.478455 67.605469 694.613281 67.605469 C 706.159485 67.605469 713.113281 72.460709 713.113281 85.84375 L 713.113281 136.357422 L 690.808594 136.357422 L 690.808594 92.140625 C 690.808594 86.892334 688.709595 84.925781 683.330078 84.925781 C 680.049927 84.925781 677.162964 85.844177 673.882813 87.15625 C 673.882813 87.812286 674.013672 88.336853 674.013672 88.730469 L 674.013672 136.357422 L 651.708984 136.357422 L 651.708984 92.140625 C 651.708984 86.892334 649.47876 84.925781 644.230469 84.925781 C 640.950317 84.925781 637.407349 85.975372 634.783203 87.15625 L 634.783203 136.357422 L 612.345703 136.357422 Z M 921.470703 136.357422 L 921.470703 68.787109 L 942.988281 68.787109 L 942.988281 76.921875 L 943.644531 76.921875 C 947.187134 71.80481 953.354248 68.130859 960.439453 68.130859 C 962.276367 68.130859 963.587769 68.393829 964.375 68.65625 L 964.375 88.335938 C 962.931763 88.073517 960.438477 87.548828 958.601563 87.548828 C 952.697266 87.548828 947.580078 88.860382 943.90625 90.697266 L 943.90625 136.357422 L 921.470703 136.357422 Z M 877.384766 123.630859 C 880.927307 123.630859 884.076233 122.449493 885.519531 120.875 L 885.519531 107.755859 L 877.646484 108.542969 C 872.398193 109.06781 870.167969 111.166473 870.167969 116.152344 C 870.167969 121.925446 873.186096 123.630859 877.384766 123.630859 Z M 393.755859 121.400391 C 397.954498 121.400391 401.23468 119.957306 403.333984 118.382813 L 403.333984 85.1875 C 401.49707 84.006622 398.216217 82.826172 394.017578 82.826172 C 386.145172 82.826172 381.421875 87.024277 381.421875 101.457031 L 381.421875 103.425781 C 381.421875 117.858536 386.277069 121.400391 393.755859 121.400391 Z M 459.359375 95.683594 L 479.828125 95.683594 C 479.828125 85.843109 476.546631 82.300781 469.986328 82.300781 C 465.000427 82.300781 460.277832 85.187073 459.359375 95.683594 Z M 746.570313 95.683594 L 767.039063 95.683594 C 767.039063 85.84317 763.759521 82.300781 757.199219 82.300781 C 752.213318 82.300781 747.48877 85.187134 746.570313 95.683594 Z M 575.476563 61.175781 L 575.476563 44.119141 L 598.175781 44.119141 L 598.175781 61.175781 L 575.476563 61.175781 Z"/>
    </g>
</svg>
