<?xml version="1.0" encoding="UTF-8"?>
<!-- Generated by Pixelmator Pro 3.3.2 -->
<svg width="850" height="192" viewBox="0 0 850 192" xmlns="http://www.w3.org/2000/svg" xmlns:xlink="http://www.w3.org/1999/xlink">
    <g id="Group">
        <g id="short-copy">
            <path id="Rectangle-copy-9" fill="#1c1c1c" fill-rule="evenodd" stroke="#1c1c1c" stroke-width="5" d="M 187 187 L 278 187 L 278 96 L 187 96 Z"/>
            <path id="Rectangle-copy-11" fill="#1c1c1c" fill-rule="evenodd" stroke="#1c1c1c" stroke-width="5" d="M 5 96 L 187 96 L 187 5 L 5 5 Z"/>
            <path id="Rectangle-copy-7" fill="#fee600" fill-rule="evenodd" stroke="#1c1c1c" stroke-width="5" d="M 5 187 L 96 187 L 96 96 L 5 96 Z"/>
            <path id="Rectangle-copy-6" fill="#fee600" fill-rule="evenodd" stroke="#1c1c1c" stroke-width="5" d="M 96 187 L 187 187 L 187 96 L 96 96 Z"/>
            <path id="Rectangle-copy-10" fill="#fee600" fill-rule="evenodd" stroke="#1c1c1c" stroke-width="5" d="M 187 96 L 278 96 L 278 5 L 187 5 Z"/>
            <path id="d" fill="#000000" fill-rule="evenodd" stroke="none" d="M 49.052979 168.583984 C 49.928955 168.583984 50.878052 168.510986 51.827026 168.36499 L 57.666992 158.291016 L 57.666992 168 L 67.813965 168 L 67.813965 115.440002 L 57.666992 115.440002 L 57.666992 131.5 L 50.001953 131.5 C 39.781982 131.5 31.824951 139.676025 31.824951 150.11499 C 31.824951 160.700012 38.76001 168.583984 49.052979 168.583984 Z M 42.045044 150.11499 C 42.045044 144.567017 45.91394 140.843994 51.754028 140.843994 L 57.666992 140.843994 L 57.666992 157.560974 C 55.477051 158.802002 53.505981 159.312988 51.31604 159.312988 C 45.475952 159.312988 42.045044 155.297974 42.045044 150.11499 Z"/>
            <path id="m" fill="#000000" fill-rule="evenodd" stroke="none" d="M 113.234009 169 L 123.380981 169 L 123.380981 142.939026 C 125.060059 141.916992 127.177002 141.187012 129.659058 141.187012 C 134.988037 141.187012 137.177979 144.617981 137.177979 148.924988 L 137.177979 169 L 147.324951 169 L 147.324951 142.939026 C 149.004028 141.916992 151.120972 141.187012 153.603027 141.187012 C 158.932007 141.187012 161.121948 144.617981 161.121948 148.924988 L 161.121948 169 L 171.269043 169 L 171.269043 146.005005 C 171.269043 137.026001 166.159058 131.843018 157.910034 131.843018 C 155.719971 131.843018 153.968018 132.208008 152.654053 132.791992 L 147.178955 142.208984 C 145.718994 135.565979 140.973999 131.843018 133.965942 131.843018 C 131.776001 131.843018 130.170044 132.208008 128.855957 132.791992 L 123.380981 142.208984 L 123.380981 132.5 L 113.234009 132.5 Z"/>
            <path id="2" fill="#000000" fill-rule="evenodd" stroke="none" d="M 231.760986 55.026978 L 214.824951 77 L 226.796997 77 L 233.878052 68.166992 L 233.878052 77 L 250.083984 77 L 250.083984 67.656006 L 234.243042 67.656006 L 239.864014 60.64801 C 245.922974 53.05603 248.697021 48.018982 248.697021 41.66803 C 248.697021 31.375 241.250977 25.242981 231.031006 25.242981 C 225.55603 25.242981 220.519043 26.994995 216.285034 29.987976 L 216.285034 40.354004 C 219.935059 37.507019 224.46106 35.098022 229.644043 35.098022 C 235.411011 35.098022 238.331055 38.091003 238.331055 42.106018 C 238.331055 45.026001 236.797974 48.45697 231.760986 55.026978 Z"/>
        </g>
        <path id="decimetar-kvadratni" fill="#000000" fill-rule="evenodd" stroke="none" d="M 479.71875 177.503906 C 466.137512 177.503906 456.4375 166.509613 456.4375 150.988281 C 456.4375 134.496887 468.186615 122.533203 486.402344 122.533203 L 511.300781 122.533203 L 511.300781 176.425781 L 492.976563 176.425781 L 492.976563 159.289063 L 484.892578 176.75 C 483.599152 177.28891 481.874634 177.503906 479.71875 177.503906 Z M 542.019531 177.503906 C 528.438293 177.503906 518.738281 166.509613 518.738281 150.988281 C 518.738281 134.496887 530.486938 122.533203 548.703125 122.533203 L 555.279297 122.533203 L 555.279297 98.820313 L 573.601563 98.820313 L 573.601563 176.425781 L 555.279297 176.425781 L 555.279297 159.289063 L 547.193359 176.75 C 545.899902 177.28891 544.175232 177.503906 542.019531 177.503906 Z M 647.652344 177.503906 C 634.071106 177.503906 624.371094 166.509613 624.371094 150.988281 C 624.371094 134.496887 636.119934 122.533203 654.335938 122.533203 L 679.234375 122.533203 L 679.234375 176.425781 L 660.910156 176.425781 L 660.910156 159.289063 L 652.826172 176.75 C 651.532715 177.28891 649.808228 177.503906 647.652344 177.503906 Z M 717.607422 177.503906 C 702.516968 177.503906 692.492188 168.450272 692.492188 154.869141 L 692.492188 139.240234 L 683.869141 139.240234 L 710.708984 106.794922 L 710.816406 106.794922 L 710.816406 138.054688 L 719.332031 122.533203 L 728.277344 122.533203 L 728.277344 139.240234 L 710.816406 139.240234 L 710.816406 152.066406 C 710.816406 157.886902 714.157043 160.796875 720.839844 160.796875 C 723.96582 160.796875 726.875916 160.043488 728.923828 158.75 L 728.923828 175.025391 C 726.013672 176.642242 722.134399 177.503906 717.607422 177.503906 Z M 340.996094 176.425781 L 340.996094 98.820313 L 359.320313 98.820313 L 359.320313 147.755859 L 375.380859 122.533203 L 395.322266 122.533203 L 378.291016 147.970703 L 396.830078 176.425781 L 376.027344 176.425781 L 359.320313 149.15625 L 359.320313 176.425781 L 340.996094 176.425781 Z M 414.722656 176.425781 L 395.96875 122.533203 L 414.507813 122.533203 L 426.472656 157.025391 L 437.142578 122.533203 L 455.681641 122.533203 L 444.472656 158.210938 L 426.902344 158.210938 L 433.261719 176.425781 L 414.722656 176.425781 Z M 583.949219 176.425781 L 583.949219 122.533203 L 602.273438 122.533203 L 602.273438 139.347656 L 610.035156 122.533203 C 612.083069 121.886398 613.807495 121.5625 616.394531 121.5625 C 618.873535 121.5625 621.028259 121.886398 622.429688 122.533203 L 622.429688 139.455078 C 620.058228 138.808273 617.471985 138.269531 614.238281 138.269531 C 608.741211 138.269531 604.860229 139.132004 602.273438 140.533203 L 602.273438 176.425781 L 583.949219 176.425781 Z M 736.039063 176.425781 L 736.039063 122.533203 L 754.363281 122.533203 L 754.363281 139.347656 L 762.123047 122.533203 C 764.171143 121.886398 765.895569 121.5625 768.482422 121.5625 C 783.033752 121.5625 791.441406 130.293152 791.441406 144.089844 L 791.441406 176.425781 L 773.117188 176.425781 L 773.117188 147.863281 C 773.117188 142.581757 770.099426 138.269531 762.662109 138.269531 C 759.212952 138.269531 756.62677 139.132004 754.363281 140.533203 L 754.363281 176.425781 L 736.039063 176.425781 Z M 800.710938 176.425781 L 800.710938 122.533203 L 819.035156 122.533203 L 819.035156 176.425781 L 800.710938 176.425781 Z M 485.539063 160.689453 C 488.341644 160.689453 490.820862 159.935226 492.976563 158.318359 L 492.976563 139.240234 L 487.587891 139.240234 C 479.61145 139.240234 474.976563 143.550385 474.976563 150.017578 C 474.976563 156.376999 479.287354 160.689453 485.539063 160.689453 Z M 547.841797 160.689453 C 550.644348 160.689453 553.123413 159.935226 555.279297 158.318359 L 555.279297 139.240234 L 549.888672 139.240234 C 541.912354 139.240234 537.277344 143.550385 537.277344 150.017578 C 537.277344 156.376999 541.590271 160.689453 547.841797 160.689453 Z M 653.472656 160.689453 C 656.275269 160.689453 658.754456 159.935226 660.910156 158.318359 L 660.910156 139.240234 L 655.521484 139.240234 C 647.545227 139.240234 642.910156 143.550385 642.910156 150.017578 C 642.910156 156.376999 647.221008 160.689453 653.472656 160.689453 Z M 800.496094 117.359375 L 800.496094 98.820313 L 819.25 98.820313 L 819.25 117.359375 L 800.496094 117.359375 Z M 361.369141 92.75 C 347.787872 92.75 338.085938 81.755836 338.085938 66.234375 C 338.085938 49.74295 349.834625 37.779297 368.050781 37.779297 L 374.626953 37.779297 L 374.626953 14.066406 L 392.949219 14.066406 L 392.949219 91.671875 L 374.626953 91.671875 L 374.626953 74.535156 L 366.542969 91.996094 C 365.249359 92.535019 363.524841 92.75 361.369141 92.75 Z M 431.107422 92.75 C 412.999084 92.75 400.064453 80.677551 400.064453 64.617188 C 400.064453 48.556824 412.998901 36.701172 428.84375 36.701172 C 444.688446 36.701172 456.4375 48.556824 456.4375 64.617188 L 456.4375 71.515625 L 419.574219 71.515625 C 421.945648 75.39595 426.687347 77.660156 433.585938 77.660156 C 438.867401 77.660156 445.227814 76.258736 452.341797 71.947266 L 452.341797 87.900391 C 446.629028 91.349594 439.514832 92.75 431.107422 92.75 Z M 491.359375 92.75 C 473.035492 92.75 460.640625 80.140205 460.640625 64.726563 C 460.640625 49.312927 473.035492 36.701172 491.359375 36.701172 C 498.581146 36.701172 502.462646 38.318314 506.019531 40.042969 L 506.019531 57.181641 C 502.570435 54.918076 498.581573 53.732422 492.976563 53.732422 C 483.167969 53.732422 479.179688 58.582642 479.179688 64.726563 C 479.179688 70.654892 483.060181 75.720703 492.976563 75.720703 C 498.581573 75.720703 503.001678 74.535057 506.558594 72.271484 L 506.558594 89.410156 C 503.001678 91.134804 498.581146 92.75 491.359375 92.75 Z M 669.318359 92.75 C 651.209961 92.75 638.275391 80.67749 638.275391 64.617188 C 638.275391 48.556885 651.209961 36.701172 667.054688 36.701172 C 682.899597 36.701172 694.648438 48.556885 694.648438 64.617188 L 694.648438 71.515625 L 657.785156 71.515625 C 660.156433 75.39592 664.898499 77.660156 671.796875 77.660156 C 677.078552 77.660156 683.438782 76.258705 690.552734 71.947266 L 690.552734 87.900391 C 684.839966 91.349594 677.725708 92.75 669.318359 92.75 Z M 729.787109 92.75 C 714.696838 92.75 704.671875 83.696381 704.671875 70.115234 L 704.671875 54.486328 L 696.048828 54.486328 L 722.888672 22.041016 L 722.996094 22.041016 L 722.996094 53.300781 L 731.511719 37.779297 L 740.457031 37.779297 L 740.457031 54.486328 L 722.996094 54.486328 L 722.996094 67.3125 C 722.996094 73.132919 726.33667 76.042969 733.019531 76.042969 C 736.145325 76.042969 739.055603 75.289513 741.103516 73.996094 L 741.103516 90.271484 C 738.193359 91.88826 734.31427 92.75 729.787109 92.75 Z M 768.589844 92.75 C 755.008545 92.75 745.308594 81.75573 745.308594 66.234375 C 745.308594 49.743057 757.057434 37.779297 775.273438 37.779297 L 800.171875 37.779297 L 800.171875 91.671875 L 781.847656 91.671875 L 781.847656 74.535156 L 773.763672 91.996094 C 772.470276 92.535019 770.745728 92.75 768.589844 92.75 Z M 514.535156 91.671875 L 514.535156 37.779297 L 532.859375 37.779297 L 532.859375 91.671875 L 514.535156 91.671875 Z M 543.207031 91.671875 L 543.207031 37.779297 L 561.529297 37.779297 L 561.529297 54.59375 L 569.291016 37.779297 C 571.338928 37.132599 573.063354 36.808594 575.650391 36.808594 C 589.339417 36.808594 595.483948 44.138794 596.777344 54.486328 L 604.644531 37.779297 C 606.692444 37.132599 608.416931 36.808594 611.003906 36.808594 C 624.908569 36.808594 632.238281 44.46106 632.238281 58.257813 L 632.238281 91.671875 L 613.914063 91.671875 L 613.914063 63.109375 C 613.914063 56.749893 610.897278 53.515625 604.322266 53.515625 C 601.627441 53.515625 599.256042 54.378464 596.884766 55.671875 L 596.884766 91.671875 L 578.560547 91.671875 L 578.560547 63.109375 C 578.560547 56.749893 575.54187 53.515625 568.966797 53.515625 C 566.271973 53.515625 563.792786 54.378098 561.529297 55.779297 L 561.529297 91.671875 L 543.207031 91.671875 Z M 810.519531 91.671875 L 810.519531 37.779297 L 828.84375 37.779297 L 828.84375 54.59375 L 836.603516 37.779297 C 838.651611 37.132599 840.377991 36.808594 842.964844 36.808594 C 845.444092 36.808594 847.598816 37.132599 849 37.779297 L 849 54.701172 C 846.628723 54.054459 844.042114 53.515625 840.808594 53.515625 C 835.311401 53.515625 831.430786 54.378098 828.84375 55.779297 L 828.84375 91.671875 L 810.519531 91.671875 Z M 367.189453 75.935547 C 369.991882 75.935547 372.471069 75.181229 374.626953 73.564453 L 374.626953 54.486328 L 369.236328 54.486328 C 361.260071 54.486328 356.625 58.798355 356.625 65.265625 C 356.625 71.625107 360.937744 75.935547 367.189453 75.935547 Z M 774.410156 75.935547 C 777.212708 75.935547 779.691956 75.181229 781.847656 73.564453 L 781.847656 54.486328 L 776.458984 54.486328 C 768.482727 54.486328 763.847656 58.798355 763.847656 65.265625 C 763.847656 71.625053 768.158447 75.935547 774.410156 75.935547 Z M 419.035156 70.439453 L 424.855469 57.828125 L 439.298828 57.828125 C 438.005402 54.163345 434.878571 51.791016 429.8125 51.791016 C 423.237457 51.791016 417.849609 56.534393 417.849609 64.833984 C 417.849609 66.881989 418.28067 68.822586 419.035156 70.439453 Z M 657.246094 70.439453 L 663.066406 57.828125 L 677.509766 57.828125 C 676.216309 54.163345 673.089539 51.791016 668.023438 51.791016 C 661.448425 51.791016 656.060547 56.534454 656.060547 64.833984 C 656.060547 66.881989 656.491577 68.822586 657.246094 70.439453 Z M 514.318359 32.605469 L 514.318359 14.066406 L 533.074219 14.066406 L 533.074219 32.605469 L 514.318359 32.605469 Z"/>
    </g>
</svg>
