<?xml version="1.0" encoding="UTF-8"?>
<!-- Generated by Pixelmator Pro 3.3.2 -->
<svg width="918" height="195" viewBox="0 0 918 195" xmlns="http://www.w3.org/2000/svg" xmlns:xlink="http://www.w3.org/1999/xlink">
    <g id="short-full">
        <g id="short">
            <path id="Rectangle-copy-9" fill="#1c1c1c" fill-rule="evenodd" stroke="#1c1c1c" stroke-width="5" d="M 191 189 L 282 189 L 282 98 L 191 98 Z"/>
            <path id="Rectangle-copy-11" fill="#1c1c1c" fill-rule="evenodd" stroke="#1c1c1c" stroke-width="5" d="M 9 98 L 191 98 L 191 7 L 9 7 Z"/>
            <path id="Rectangle-copy-10" fill="#fee600" fill-rule="evenodd" stroke="#1c1c1c" stroke-width="5" d="M 191 98 L 282 98 L 282 7 L 191 7 Z"/>
            <path id="Rectangle-copy-7" fill="#fee600" fill-rule="evenodd" stroke="#1c1c1c" stroke-width="5" d="M 9 189 L 100 189 L 100 98 L 9 98 Z"/>
            <path id="Rectangle-copy-6" fill="#fee600" fill-rule="evenodd" stroke="#1c1c1c" stroke-width="5" d="M 100 189 L 191 189 L 191 98 L 100 98 Z"/>
            <path id="d" fill="#000000" fill-rule="evenodd" stroke="none" d="M 51.666 167.664001 C 56.410995 167.664001 59.914993 166.277008 62.324005 164.014008 L 62.688995 164.014008 L 63.492004 167.006989 L 71.667999 167.006989 L 71.667999 113.644012 L 62.104996 113.644012 L 62.104996 130.506989 C 60.425995 129.558014 57.725006 128.463013 53.417999 128.463013 C 43.636002 128.463013 36.481995 134.230011 36.481995 148.246002 L 36.481995 149.195007 C 36.481995 162.77301 44.074005 167.664001 51.666 167.664001 Z M 55.169998 160.364014 C 49.841003 160.364014 46.337006 157.881989 46.337006 148.756989 L 46.337006 147.442993 C 46.337006 138.463989 49.621994 135.690002 55.169998 135.690002 C 58.235992 135.690002 60.863998 136.346985 62.104996 137.29599 L 62.104996 157.954987 C 60.791 159.049988 58.455002 160.364014 55.169998 160.364014 Z"/>
            <path id="m" fill="#000000" fill-rule="evenodd" stroke="none" d="M 119.233994 167.006989 L 128.796997 167.006989 L 128.796997 138.098999 C 130.914001 137.29599 133.395996 136.200989 135.804993 136.200989 C 139.820007 136.200989 141.134003 137.734009 141.134003 141.165009 L 141.134003 167.006989 L 150.769989 167.006989 L 150.769989 139.631989 C 150.769989 139.121002 150.769989 138.683014 150.696991 138.171997 C 153.178986 137.149994 155.441986 136.200989 157.778015 136.200989 C 161.720001 136.200989 163.106995 137.734009 163.106995 141.165009 L 163.106995 167.006989 L 172.670013 167.006989 L 172.670013 138.756012 C 172.670013 131.382996 168.800995 128.463013 162.230988 128.463013 C 157.851013 128.463013 153.617004 130.069 149.821014 132.696991 L 149.455994 132.696991 C 147.631012 129.777008 144.565002 128.463013 140.330994 128.463013 C 135.804993 128.463013 131.936005 130.287994 128.796997 132.696991 L 128.432007 132.696991 L 128.432007 129.192993 L 119.233994 129.192993 Z"/>
            <path id="2" fill="#000000" fill-rule="evenodd" stroke="none" d="M 220.503998 74.006989 L 252.915985 74.006989 L 252.915985 66.049988 L 233.790009 66.049988 L 238.972992 60.794006 C 244.083008 55.465027 252.769989 46.559021 252.769989 37.507019 C 252.769989 28.309021 247.075989 23.125977 235.541992 23.125977 C 229.701996 23.125977 224.59201 24.731995 221.088013 26.703003 L 222.402008 34.075989 C 225.175995 32.616028 229.337006 31.083008 232.476013 31.083008 C 238.681 31.083008 242.039001 33.054016 242.039001 38.96698 C 242.039001 44.880005 236.053009 51.450012 229.19101 58.75 L 220.503998 68.020996 Z"/>
        </g>
        <path id="decimetar-kvadratni-copy" fill="#1c1c1c" fill-rule="evenodd" stroke="none" d="M 511.033203 188.720703 C 499.666412 188.720703 491.685547 183.037659 491.685547 171.066406 C 491.685547 157.885925 500.755341 153.532593 514.177734 151.71875 L 525.542969 150.025391 L 525.542969 147.486328 C 525.542969 140.835632 522.399475 139.503906 513.451172 139.503906 C 507.163177 139.503906 501.238129 140.350983 497.005859 141.318359 L 497.005859 127.775391 C 503.414764 125.236015 511.636719 124.146484 521.310547 124.146484 C 536.667725 124.146484 546.099609 129.106064 546.099609 143.253906 L 546.099609 187.632813 L 529.050781 187.632813 L 527.599609 182.794922 L 526.994141 182.794922 C 524.333862 186.543488 518.772217 188.720703 511.033203 188.720703 Z M 581.046875 188.720703 C 567.987244 188.720703 556.378906 180.013626 556.378906 158.005859 L 556.378906 156.675781 C 556.378906 133.216949 568.230286 124.146484 584.675781 124.146484 C 591.326538 124.146484 595.678711 125.599365 597.734375 126.808594 L 597.734375 101.050781 L 618.169922 101.050781 L 618.169922 187.511719 L 600.515625 187.511719 L 599.185547 182.794922 L 598.460938 182.794922 C 594.228699 186.785339 588.665039 188.720703 581.046875 188.720703 Z M 694.351563 188.720703 C 682.984741 188.720703 675.003906 183.037659 675.003906 171.066406 C 675.003906 157.885925 684.073669 153.532593 697.496094 151.71875 L 708.863281 150.025391 L 708.863281 147.486328 C 708.863281 140.835632 705.717773 139.503906 696.769531 139.503906 C 690.481506 139.503906 684.556519 140.350983 680.324219 141.318359 L 680.324219 127.775391 C 686.733154 125.236015 694.957031 124.146484 704.630859 124.146484 C 719.988037 124.146484 729.419922 129.106064 729.419922 143.253906 L 729.419922 187.632813 L 712.369141 187.632813 L 710.917969 182.794922 L 710.314453 182.794922 C 707.654175 186.543488 702.090576 188.720703 694.351563 188.720703 Z M 765.9375 188.478516 C 753.482483 188.478516 746.107422 184.367294 746.107422 170.703125 L 746.107422 139.625 L 738.367188 139.625 L 738.367188 125.357422 L 746.107422 125.357422 L 746.107422 110.603516 L 766.785156 110.603516 L 766.785156 125.357422 L 779.361328 125.357422 L 779.361328 139.625 L 766.785156 139.625 L 766.785156 167.679688 C 766.785156 172.032867 768.598877 173.363281 773.556641 173.363281 C 775.733276 173.363281 778.029724 173.120575 779.722656 172.757813 L 779.722656 186.060547 C 777.183289 187.26976 772.588257 188.478516 765.9375 188.478516 Z M 445.855469 187.632813 L 423.847656 125.236328 L 445.371094 125.236328 L 457.464844 164.292969 L 457.826172 164.292969 L 469.919922 125.236328 L 489.267578 125.236328 L 467.259766 187.632813 L 445.855469 187.632813 Z M 861.708984 187.632813 L 861.708984 125.236328 L 882.386719 125.236328 L 882.386719 187.632813 L 861.708984 187.632813 Z M 359.878906 187.511719 L 359.878906 101.050781 L 380.435547 101.050781 L 380.435547 151.476563 L 398.332031 125.236328 L 418.769531 125.236328 L 398.695313 153.773438 L 419.857422 187.511719 L 398.091797 187.511719 L 380.435547 158.730469 L 380.435547 187.511719 L 359.878906 187.511719 Z M 631.109375 187.511719 L 631.109375 125.236328 L 650.941406 125.236328 L 650.941406 132.732422 L 651.544922 132.732422 C 654.809814 128.01651 660.493591 124.630859 667.023438 124.630859 C 668.716309 124.630859 669.924866 124.873398 670.650391 125.115234 L 670.650391 143.253906 C 669.320251 143.01207 667.02301 142.527344 665.330078 142.527344 C 659.88855 142.527344 655.172974 143.736771 651.787109 145.429688 L 651.787109 187.511719 L 631.109375 187.511719 Z M 790.244141 187.511719 L 790.244141 125.236328 L 810.074219 125.236328 L 810.074219 130.677734 L 810.679688 130.677734 C 816.121216 126.445503 822.651672 124.146484 830.511719 124.146484 C 842.120239 124.146484 848.890625 128.863251 848.890625 141.197266 L 848.890625 187.511719 L 828.333984 187.511719 L 828.333984 146.880859 C 828.333984 141.802124 826.157959 140.109375 820.474609 140.109375 C 817.209656 140.109375 813.340332 141.196686 810.921875 142.164063 L 810.921875 187.511719 L 790.244141 187.511719 Z M 518.046875 175.78125 C 521.311768 175.78125 524.212769 174.693237 525.542969 173.242188 L 525.542969 161.150391 L 518.289063 161.875 C 513.452148 162.358688 511.396484 164.29364 511.396484 168.888672 C 511.396484 174.209229 514.177307 175.78125 518.046875 175.78125 Z M 701.365234 175.78125 C 704.630127 175.78125 707.533142 174.693237 708.863281 173.242188 L 708.863281 161.150391 L 701.607422 161.875 C 696.770569 162.358688 694.714844 164.29364 694.714844 168.888672 C 694.714844 174.209229 697.495728 175.78125 701.365234 175.78125 Z M 588.90625 173.726563 C 592.775818 173.726563 595.799622 172.396378 597.734375 170.945313 L 597.734375 140.351563 C 596.041443 139.26326 593.017944 138.173828 589.148438 138.173828 C 581.893005 138.173828 577.541016 142.044281 577.541016 155.345703 L 577.541016 157.160156 C 577.541016 170.461548 582.013672 173.726563 588.90625 173.726563 Z M 861.587891 118.222656 L 861.587891 102.501953 L 882.507813 102.501953 L 882.507813 118.222656 L 861.587891 118.222656 Z M 382.128906 94.669922 C 369.069275 94.669922 357.460938 85.96299 357.460938 63.955078 L 357.460938 62.625 C 357.460938 39.166016 369.312347 30.095703 385.757813 30.095703 C 392.408539 30.095703 396.760712 31.546631 398.816406 32.755859 L 398.816406 7 L 419.251953 7 L 419.251953 93.458984 L 401.597656 93.458984 L 400.267578 88.744141 L 399.542969 88.744141 C 395.310699 92.734589 389.74707 94.669922 382.128906 94.669922 Z M 462.542969 94.669922 C 440.414185 94.669922 429.652344 83.543152 429.652344 62.986328 L 429.652344 61.416016 C 429.652344 42.189331 441.624054 30.095703 460.246094 30.095703 C 481.165649 30.095703 489.025391 41.825806 489.025391 62.261719 L 489.025391 67.582031 L 450.572266 67.582031 C 451.781494 77.376755 457.343048 80.158203 467.863281 80.158203 C 475.239624 80.158203 481.649414 78.344925 486.486328 76.410156 L 486.486328 89.107422 C 481.770294 91.888649 474.03064 94.669922 462.542969 94.669922 Z M 528.083984 94.669922 C 507.527191 94.669922 496.642578 83.906593 496.642578 63.470703 L 496.642578 62.019531 C 496.642578 40.858078 509.21933 30.095703 528.929688 30.095703 C 537.515198 30.095703 542.472229 31.18454 546.341797 33.240234 L 546.341797 48.113281 C 542.230408 46.541275 538.965698 45.574219 532.677734 45.574219 C 523.971252 45.574219 518.046875 50.048126 518.046875 60.568359 L 518.046875 62.503906 C 518.046875 74.233376 522.520569 79.191406 532.919922 79.191406 C 538.966064 79.191406 543.681946 77.619553 546.705078 76.53125 L 546.705078 90.4375 C 543.319214 92.614113 537.153198 94.669922 528.083984 94.669922 Z M 727.242188 94.669922 C 705.113281 94.669922 694.351563 83.54306 694.351563 62.986328 L 694.351563 61.416016 C 694.351563 42.189392 706.323181 30.095703 724.945313 30.095703 C 745.864929 30.095703 753.724609 41.825867 753.724609 62.261719 L 753.724609 67.582031 L 715.271484 67.582031 C 716.480713 77.376724 722.042236 80.158203 732.5625 80.158203 C 739.938782 80.158203 746.348694 78.344925 751.185547 76.410156 L 751.185547 89.107422 C 746.469604 91.888649 738.729797 94.669922 727.242188 94.669922 Z M 828.697266 94.669922 C 817.330566 94.669922 809.349609 88.984917 809.349609 77.013672 C 809.349609 63.833221 818.419373 59.479828 831.841797 57.666016 L 843.207031 55.974609 L 843.207031 53.433594 C 843.207031 46.782837 840.063538 45.453125 831.115234 45.453125 C 824.827271 45.453125 818.902161 46.300186 814.669922 47.267578 L 814.669922 33.724609 C 821.078735 31.185242 829.300781 30.095703 838.974609 30.095703 C 854.331848 30.095703 863.765625 35.053345 863.765625 49.201172 L 863.765625 93.580078 L 846.714844 93.580078 L 845.263672 88.744141 L 844.658203 88.744141 C 841.997925 92.492744 836.43634 94.669922 828.697266 94.669922 Z M 787.824219 94.427734 C 775.369202 94.427734 767.994141 90.316505 767.994141 76.652344 L 767.994141 45.574219 L 760.253906 45.574219 L 760.253906 31.304688 L 767.994141 31.304688 L 767.994141 16.552734 L 788.671875 16.552734 L 788.671875 31.304688 L 801.248047 31.304688 L 801.248047 45.574219 L 788.671875 45.574219 L 788.671875 73.628906 C 788.671875 77.982071 790.485474 79.3125 795.443359 79.3125 C 797.619934 79.3125 799.916504 79.069801 801.609375 78.707031 L 801.609375 92.007813 C 799.070068 93.217041 794.474976 94.427734 787.824219 94.427734 Z M 557.587891 93.580078 L 557.587891 31.183594 L 578.265625 31.183594 L 578.265625 93.580078 L 557.587891 93.580078 Z M 591.447266 93.458984 L 591.447266 31.183594 L 611.277344 31.183594 L 611.277344 36.626953 L 611.882813 36.626953 C 617.082458 32.515564 623.128601 30.095703 631.230469 30.095703 C 638.364929 30.095703 643.322266 32.15155 646.103516 37.109375 L 646.587891 37.109375 C 652.754944 32.514313 659.768433 30.095703 667.265625 30.095703 C 677.906799 30.095703 684.314453 34.570236 684.314453 46.904297 L 684.314453 93.458984 L 663.757813 93.458984 L 663.757813 52.708984 C 663.757813 47.87207 661.823059 46.058594 656.865234 46.058594 C 653.842163 46.058594 651.183228 46.904053 648.160156 48.113281 C 648.160156 48.717896 648.28125 49.201691 648.28125 49.564453 L 648.28125 93.458984 L 627.722656 93.458984 L 627.722656 52.708984 C 627.722656 47.87207 625.666992 46.058594 620.830078 46.058594 C 617.807007 46.058594 614.543457 47.024963 612.125 48.113281 L 612.125 93.458984 L 591.447266 93.458984 Z M 876.339844 93.458984 L 876.339844 31.183594 L 896.171875 31.183594 L 896.171875 38.681641 L 896.777344 38.681641 C 900.042297 33.965652 905.72406 30.580078 912.253906 30.580078 C 913.946838 30.580078 915.157288 30.822601 915.882813 31.064453 L 915.882813 49.201172 C 914.552673 48.95932 912.255432 48.476563 910.5625 48.476563 C 905.120972 48.476563 900.403503 49.686005 897.017578 51.378906 L 897.017578 93.458984 L 876.339844 93.458984 Z M 835.710938 81.730469 C 838.97583 81.730469 841.876892 80.642487 843.207031 79.191406 L 843.207031 67.097656 L 835.953125 67.824219 C 831.116211 68.307922 829.060547 70.242882 829.060547 74.837891 C 829.060547 80.158424 831.84137 81.730469 835.710938 81.730469 Z M 389.988281 79.673828 C 393.857819 79.673828 396.881653 78.343658 398.816406 76.892578 L 398.816406 46.300781 C 397.123474 45.212463 394.100006 44.123047 390.230469 44.123047 C 382.975098 44.123047 378.623047 47.993439 378.623047 61.294922 L 378.623047 63.107422 C 378.623047 76.40892 383.095673 79.673828 389.988281 79.673828 Z M 450.451172 55.974609 L 469.314453 55.974609 C 469.314453 46.905441 466.292175 43.638672 460.246094 43.638672 C 455.651001 43.638672 451.297638 46.300812 450.451172 55.974609 Z M 715.150391 55.974609 L 734.013672 55.974609 C 734.013672 46.905502 730.991394 43.638672 724.945313 43.638672 C 720.35022 43.638672 715.996887 46.300873 715.150391 55.974609 Z M 557.466797 24.171875 L 557.466797 8.451172 L 578.386719 8.451172 L 578.386719 24.171875 L 557.466797 24.171875 Z"/>
    </g>
</svg>
