<?xml version="1.0" encoding="UTF-8"?>
<!-- Generated by Pixelmator Pro 3.3.2 -->
<svg width="283" height="192" viewBox="0 0 283 192" xmlns="http://www.w3.org/2000/svg" xmlns:xlink="http://www.w3.org/1999/xlink">
    <g id="short">
        <path id="Rectangle-copy-9" fill="#1c1c1c" fill-rule="evenodd" stroke="#1c1c1c" stroke-width="5" d="M 187 187 L 278 187 L 278 96 L 187 96 Z"/>
        <path id="Rectangle-copy-11" fill="#1c1c1c" fill-rule="evenodd" stroke="#1c1c1c" stroke-width="5" d="M 5 96 L 187 96 L 187 5 L 5 5 Z"/>
        <path id="Rectangle-copy-10" fill="#fee600" fill-rule="evenodd" stroke="#1c1c1c" stroke-width="5" d="M 187 96 L 278 96 L 278 5 L 187 5 Z"/>
        <path id="Rectangle-copy-7" fill="#fee600" fill-rule="evenodd" stroke="#1c1c1c" stroke-width="5" d="M 5 187 L 96 187 L 96 96 L 5 96 Z"/>
        <path id="Rectangle-copy-6" fill="#fee600" fill-rule="evenodd" stroke="#1c1c1c" stroke-width="5" d="M 96 187 L 187 187 L 187 96 L 96 96 Z"/>
        <path id="d" fill="#000000" fill-rule="evenodd" stroke="none" d="M 47.666 165.664001 C 52.410995 165.664001 55.914993 164.277008 58.324005 162.014008 L 58.688995 162.014008 L 59.492004 165.006989 L 67.667999 165.006989 L 67.667999 111.644012 L 58.104996 111.644012 L 58.104996 128.506989 C 56.425995 127.558014 53.725006 126.463013 49.417999 126.463013 C 39.636002 126.463013 32.481995 132.230011 32.481995 146.246002 L 32.481995 147.195007 C 32.481995 160.77301 40.074005 165.664001 47.666 165.664001 Z M 51.169998 158.364014 C 45.841003 158.364014 42.337006 155.881989 42.337006 146.756989 L 42.337006 145.442993 C 42.337006 136.463989 45.621994 133.690002 51.169998 133.690002 C 54.235992 133.690002 56.863998 134.346985 58.104996 135.29599 L 58.104996 155.954987 C 56.791 157.049988 54.455002 158.364014 51.169998 158.364014 Z"/>
        <path id="m" fill="#000000" fill-rule="evenodd" stroke="none" d="M 115.233994 165.006989 L 124.796997 165.006989 L 124.796997 136.098999 C 126.914001 135.29599 129.395996 134.200989 131.804993 134.200989 C 135.820007 134.200989 137.134003 135.734009 137.134003 139.165009 L 137.134003 165.006989 L 146.769989 165.006989 L 146.769989 137.631989 C 146.769989 137.121002 146.769989 136.683014 146.696991 136.171997 C 149.178986 135.149994 151.441986 134.200989 153.778015 134.200989 C 157.720001 134.200989 159.106995 135.734009 159.106995 139.165009 L 159.106995 165.006989 L 168.670013 165.006989 L 168.670013 136.756012 C 168.670013 129.382996 164.800995 126.463013 158.230988 126.463013 C 153.851013 126.463013 149.617004 128.069 145.821014 130.696991 L 145.455994 130.696991 C 143.631012 127.777008 140.565002 126.463013 136.330994 126.463013 C 131.804993 126.463013 127.936005 128.287994 124.796997 130.696991 L 124.432007 130.696991 L 124.432007 127.192993 L 115.233994 127.192993 Z"/>
        <path id="2" fill="#000000" fill-rule="evenodd" stroke="none" d="M 216.503998 72.006989 L 248.915985 72.006989 L 248.915985 64.049988 L 229.790009 64.049988 L 234.972992 58.794006 C 240.083008 53.465027 248.769989 44.559021 248.769989 35.507019 C 248.769989 26.309021 243.075989 21.125977 231.541992 21.125977 C 225.701996 21.125977 220.59201 22.731995 217.088013 24.703003 L 218.402008 32.075989 C 221.175995 30.616028 225.337006 29.083008 228.476013 29.083008 C 234.681 29.083008 238.039001 31.054016 238.039001 36.96698 C 238.039001 42.880005 232.053009 49.450012 225.19101 56.75 L 216.503998 66.020996 Z"/>
    </g>
</svg>
